<svg xmlns="http://www.w3.org/2000/svg" viewBox="0 0 199.37 226.51"><defs><style>.cls-1{fill:#e5bd7c;}</style></defs><g id="Layer_2" data-name="Layer 2"><g id="Layer_1-2" data-name="Layer 1"><path class="cls-1" d="M161.17,137v-.52l-34.34-34.18c-.27.8-.87,1.16-2,1.3-2.8.34-5.61.6-8.41.92a164.38,164.38,0,0,1-29.17,1.11,71.34,71.34,0,0,1-7.73-.84,5.75,5.75,0,0,1-4.77-4.61A11.78,11.78,0,0,1,74.29,98a5.5,5.5,0,0,0-2.15-4.3C69,91,68.61,87.79,70.76,84.25c.17-.28.34-.55.46-.76-.78-.85-1.45-1.61-2.15-2.34a5.51,5.51,0,0,1-1-6.14,19.63,19.63,0,0,1,1.46-2.76,1.85,1.85,0,0,0,.09-2.11,23.64,23.64,0,0,1-1.27-2.92A7.26,7.26,0,0,1,73,57.55a18.59,18.59,0,0,1,5-1c4.39-.13,8.79,0,13.18,0a11,11,0,0,0,2.07-.16,2.06,2.06,0,0,0,1.65-2.48,12.21,12.21,0,0,0-.83-2.33c-1.48-3.43-3.1-6.8-4.48-10.26a15.21,15.21,0,0,1,1.07-13.44c1.1-2,2.88-2.52,5.06-2.14s3.55,1.39,4,3.51a15.92,15.92,0,0,1,.4,3.37c.07,5.29,2.53,9.14,6.81,12.1a41.86,41.86,0,0,1,10.24,9.72,64.65,64.65,0,0,1,4.11,6.73c1,1.75,1.89,3.47,4.05,4,.94.24,1.38.56,1.58,1.21L185.5,94.93a7.3,7.3,0,0,0,10.39-5.3,104.2,104.2,0,0,0,1.47-17.93c0-47.24-27.82-71.7-79.75-71.7H32.84A32.84,32.84,0,0,0,0,32.84V194c0,20.11,11.73,32.51,30.83,32.51S61.65,214.11,61.65,194V150.11H96.83l44.9,61c8.05,11.06,16.76,15.42,27.14,15.42,18.1,0,30.5-12.07,30.5-30.83,0-7.71-2.69-15.08-9.05-22.78Z"/></g></g></svg>